<svg id="visual" viewBox="0 0 900 600" width="900" height="600" xmlns="http://www.w3.org/2000/svg" xmlns:xlink="http://www.w3.org/1999/xlink" version="1.1"><rect x="0" y="0" width="900" height="600" fill="#F0ECC9"></rect><defs><linearGradient id="grad1_0" x1="33.3%" y1="0%" x2="100%" y2="100%"><stop offset="20%" stop-color="#1f9295" stop-opacity="1"></stop><stop offset="80%" stop-color="#1f9295" stop-opacity="1"></stop></linearGradient></defs><defs><linearGradient id="grad1_1" x1="33.3%" y1="0%" x2="100%" y2="100%"><stop offset="20%" stop-color="#1f9295" stop-opacity="1"></stop><stop offset="80%" stop-color="#93c0a0" stop-opacity="1"></stop></linearGradient></defs><defs><linearGradient id="grad1_2" x1="33.3%" y1="0%" x2="100%" y2="100%"><stop offset="20%" stop-color="#f0ecc9" stop-opacity="1"></stop><stop offset="80%" stop-color="#93c0a0" stop-opacity="1"></stop></linearGradient></defs><defs><linearGradient id="grad2_0" x1="0%" y1="0%" x2="66.7%" y2="100%"><stop offset="20%" stop-color="#1f9295" stop-opacity="1"></stop><stop offset="80%" stop-color="#1f9295" stop-opacity="1"></stop></linearGradient></defs><defs><linearGradient id="grad2_1" x1="0%" y1="0%" x2="66.7%" y2="100%"><stop offset="20%" stop-color="#93c0a0" stop-opacity="1"></stop><stop offset="80%" stop-color="#1f9295" stop-opacity="1"></stop></linearGradient></defs><defs><linearGradient id="grad2_2" x1="0%" y1="0%" x2="66.7%" y2="100%"><stop offset="20%" stop-color="#93c0a0" stop-opacity="1"></stop><stop offset="80%" stop-color="#f0ecc9" stop-opacity="1"></stop></linearGradient></defs><g transform="translate(900, 0)"><path d="M0 486.7C-67.7 485.5 -135.4 484.3 -186.3 449.7C-237.2 415.1 -271.3 347.1 -290.6 290.6C-309.9 234.2 -314.4 189.3 -344.6 142.7C-374.8 96.2 -430.8 48.1 -486.7 0L0 0Z" fill="#c4d6b0"></path><path d="M0 324.5C-45.1 323.7 -90.2 322.9 -124.2 299.8C-158.1 276.7 -180.9 231.4 -193.7 193.7C-206.6 156.1 -209.6 126.2 -229.7 95.2C-249.9 64.2 -287.2 32.1 -324.5 0L0 0Z" fill="#60aa98"></path><path d="M0 162.2C-22.6 161.8 -45.1 161.4 -62.1 149.9C-79.1 138.4 -90.4 115.7 -96.9 96.9C-103.3 78.1 -104.8 63.1 -114.9 47.6C-124.9 32.1 -143.6 16 -162.2 0L0 0Z" fill="#1f9295"></path></g><g transform="translate(0, 600)"><path d="M0 -486.7C56.6 -459.9 113.2 -433 169.9 -410.2C226.6 -387.4 283.4 -368.7 333 -333C382.7 -297.3 425.3 -244.6 449.7 -186.3C474.1 -127.9 480.4 -64 486.7 0L0 0Z" fill="#c4d6b0"></path><path d="M0 -324.5C37.7 -306.6 75.5 -288.7 113.3 -273.5C151.1 -258.3 188.9 -245.8 222 -222C255.1 -198.2 283.5 -163.1 299.8 -124.2C316.1 -85.3 320.3 -42.6 324.5 0L0 0Z" fill="#60aa98"></path><path d="M0 -162.2C18.9 -153.3 37.7 -144.3 56.6 -136.7C75.5 -129.1 94.5 -122.9 111 -111C127.6 -99.1 141.8 -81.5 149.9 -62.1C158 -42.6 160.1 -21.3 162.2 0L0 0Z" fill="#1f9295"></path></g></svg>